<mxfile host="app.diagrams.net" agent="Mozilla/5.0 (Windows NT 10.0; Win64; x64) AppleWebKit/537.36 (KHTML, like Gecko) Chrome/133.0.0.0 Safari/537.36" version="26.0.11">
  <diagram name="Page-1" id="Eavo7DgZ1PGqxKYZ53sw">
    <mxGraphModel dx="300" dy="163" grid="1" gridSize="10" guides="1" tooltips="1" connect="1" arrows="1" fold="1" page="1" pageScale="1" pageWidth="827" pageHeight="1169" math="0" shadow="0">
      <root>
        <mxCell id="0" />
        <mxCell id="1" parent="0" />
        <mxCell id="l613piqfv5i1cjY3Hqcz-19" value="" style="ellipse;whiteSpace=wrap;html=1;aspect=fixed;" vertex="1" parent="1">
          <mxGeometry x="320" y="200" width="10" height="10" as="geometry" />
        </mxCell>
        <mxCell id="l613piqfv5i1cjY3Hqcz-20" value="" style="ellipse;whiteSpace=wrap;html=1;aspect=fixed;" vertex="1" parent="1">
          <mxGeometry x="360" y="200" width="10" height="10" as="geometry" />
        </mxCell>
        <mxCell id="l613piqfv5i1cjY3Hqcz-21" value="" style="ellipse;whiteSpace=wrap;html=1;aspect=fixed;" vertex="1" parent="1">
          <mxGeometry x="400" y="200" width="10" height="10" as="geometry" />
        </mxCell>
        <mxCell id="l613piqfv5i1cjY3Hqcz-25" value="" style="ellipse;whiteSpace=wrap;html=1;aspect=fixed;" vertex="1" parent="1">
          <mxGeometry x="320" y="240" width="10" height="10" as="geometry" />
        </mxCell>
        <mxCell id="l613piqfv5i1cjY3Hqcz-26" value="" style="ellipse;whiteSpace=wrap;html=1;aspect=fixed;" vertex="1" parent="1">
          <mxGeometry x="360" y="240" width="10" height="10" as="geometry" />
        </mxCell>
        <mxCell id="l613piqfv5i1cjY3Hqcz-27" value="" style="ellipse;whiteSpace=wrap;html=1;aspect=fixed;" vertex="1" parent="1">
          <mxGeometry x="400" y="240" width="10" height="10" as="geometry" />
        </mxCell>
        <mxCell id="l613piqfv5i1cjY3Hqcz-28" value="" style="ellipse;whiteSpace=wrap;html=1;aspect=fixed;" vertex="1" parent="1">
          <mxGeometry x="320" y="280" width="10" height="10" as="geometry" />
        </mxCell>
        <mxCell id="l613piqfv5i1cjY3Hqcz-29" value="" style="ellipse;whiteSpace=wrap;html=1;aspect=fixed;" vertex="1" parent="1">
          <mxGeometry x="360" y="280" width="10" height="10" as="geometry" />
        </mxCell>
        <mxCell id="l613piqfv5i1cjY3Hqcz-30" value="" style="ellipse;whiteSpace=wrap;html=1;aspect=fixed;" vertex="1" parent="1">
          <mxGeometry x="400" y="280" width="10" height="10" as="geometry" />
        </mxCell>
        <mxCell id="l613piqfv5i1cjY3Hqcz-31" value="" style="endArrow=none;html=1;rounded=0;entryX=0.5;entryY=1;entryDx=0;entryDy=0;exitX=0.5;exitY=0;exitDx=0;exitDy=0;" edge="1" parent="1" source="l613piqfv5i1cjY3Hqcz-25" target="l613piqfv5i1cjY3Hqcz-19">
          <mxGeometry width="50" height="50" relative="1" as="geometry">
            <mxPoint x="420" y="300" as="sourcePoint" />
            <mxPoint x="470" y="250" as="targetPoint" />
          </mxGeometry>
        </mxCell>
        <mxCell id="l613piqfv5i1cjY3Hqcz-35" value="" style="endArrow=none;html=1;rounded=0;entryX=0.5;entryY=1;entryDx=0;entryDy=0;exitX=0.5;exitY=0;exitDx=0;exitDy=0;" edge="1" parent="1">
          <mxGeometry width="50" height="50" relative="1" as="geometry">
            <mxPoint x="324.7" y="280" as="sourcePoint" />
            <mxPoint x="324.7" y="250" as="targetPoint" />
          </mxGeometry>
        </mxCell>
        <mxCell id="l613piqfv5i1cjY3Hqcz-36" value="" style="endArrow=none;html=1;rounded=0;entryX=0.5;entryY=1;entryDx=0;entryDy=0;exitX=0.5;exitY=0;exitDx=0;exitDy=0;" edge="1" parent="1">
          <mxGeometry width="50" height="50" relative="1" as="geometry">
            <mxPoint x="364.85" y="240" as="sourcePoint" />
            <mxPoint x="364.85" y="210" as="targetPoint" />
          </mxGeometry>
        </mxCell>
        <mxCell id="l613piqfv5i1cjY3Hqcz-37" value="" style="endArrow=none;html=1;rounded=0;entryX=0.5;entryY=1;entryDx=0;entryDy=0;exitX=0.5;exitY=0;exitDx=0;exitDy=0;" edge="1" parent="1">
          <mxGeometry width="50" height="50" relative="1" as="geometry">
            <mxPoint x="364.55" y="280" as="sourcePoint" />
            <mxPoint x="364.55" y="250" as="targetPoint" />
          </mxGeometry>
        </mxCell>
        <mxCell id="l613piqfv5i1cjY3Hqcz-38" value="" style="endArrow=none;html=1;rounded=0;entryX=0.5;entryY=1;entryDx=0;entryDy=0;exitX=0.5;exitY=0;exitDx=0;exitDy=0;" edge="1" parent="1">
          <mxGeometry width="50" height="50" relative="1" as="geometry">
            <mxPoint x="404.7" y="240" as="sourcePoint" />
            <mxPoint x="404.7" y="210" as="targetPoint" />
          </mxGeometry>
        </mxCell>
        <mxCell id="l613piqfv5i1cjY3Hqcz-39" value="" style="endArrow=none;html=1;rounded=0;entryX=0.5;entryY=1;entryDx=0;entryDy=0;exitX=0.5;exitY=0;exitDx=0;exitDy=0;" edge="1" parent="1">
          <mxGeometry width="50" height="50" relative="1" as="geometry">
            <mxPoint x="404.7" y="280" as="sourcePoint" />
            <mxPoint x="404.7" y="250" as="targetPoint" />
          </mxGeometry>
        </mxCell>
        <mxCell id="l613piqfv5i1cjY3Hqcz-42" value="" style="endArrow=none;html=1;rounded=0;exitX=1;exitY=0.5;exitDx=0;exitDy=0;entryX=0;entryY=0.5;entryDx=0;entryDy=0;" edge="1" parent="1" source="l613piqfv5i1cjY3Hqcz-19" target="l613piqfv5i1cjY3Hqcz-20">
          <mxGeometry width="50" height="50" relative="1" as="geometry">
            <mxPoint x="420" y="300" as="sourcePoint" />
            <mxPoint x="470" y="250" as="targetPoint" />
          </mxGeometry>
        </mxCell>
        <mxCell id="l613piqfv5i1cjY3Hqcz-43" value="" style="endArrow=none;html=1;rounded=0;exitX=1;exitY=0.5;exitDx=0;exitDy=0;entryX=0;entryY=0.5;entryDx=0;entryDy=0;" edge="1" parent="1">
          <mxGeometry width="50" height="50" relative="1" as="geometry">
            <mxPoint x="370" y="204.7" as="sourcePoint" />
            <mxPoint x="400" y="204.7" as="targetPoint" />
          </mxGeometry>
        </mxCell>
        <mxCell id="l613piqfv5i1cjY3Hqcz-44" value="" style="endArrow=none;html=1;rounded=0;exitX=1;exitY=0.5;exitDx=0;exitDy=0;entryX=0;entryY=0.5;entryDx=0;entryDy=0;" edge="1" parent="1">
          <mxGeometry width="50" height="50" relative="1" as="geometry">
            <mxPoint x="330" y="244.85" as="sourcePoint" />
            <mxPoint x="360" y="244.85" as="targetPoint" />
          </mxGeometry>
        </mxCell>
        <mxCell id="l613piqfv5i1cjY3Hqcz-45" value="" style="endArrow=none;html=1;rounded=0;exitX=1;exitY=0.5;exitDx=0;exitDy=0;entryX=0;entryY=0.5;entryDx=0;entryDy=0;" edge="1" parent="1">
          <mxGeometry width="50" height="50" relative="1" as="geometry">
            <mxPoint x="370" y="244.54999999999998" as="sourcePoint" />
            <mxPoint x="400" y="244.54999999999998" as="targetPoint" />
          </mxGeometry>
        </mxCell>
        <mxCell id="l613piqfv5i1cjY3Hqcz-46" value="" style="endArrow=none;html=1;rounded=0;exitX=1;exitY=0.5;exitDx=0;exitDy=0;entryX=0;entryY=0.5;entryDx=0;entryDy=0;" edge="1" parent="1">
          <mxGeometry width="50" height="50" relative="1" as="geometry">
            <mxPoint x="330" y="284.85" as="sourcePoint" />
            <mxPoint x="360" y="284.85" as="targetPoint" />
          </mxGeometry>
        </mxCell>
        <mxCell id="l613piqfv5i1cjY3Hqcz-47" value="" style="endArrow=none;html=1;rounded=0;exitX=1;exitY=0.5;exitDx=0;exitDy=0;entryX=0;entryY=0.5;entryDx=0;entryDy=0;" edge="1" parent="1">
          <mxGeometry width="50" height="50" relative="1" as="geometry">
            <mxPoint x="370" y="284.55" as="sourcePoint" />
            <mxPoint x="400" y="284.55" as="targetPoint" />
          </mxGeometry>
        </mxCell>
        <mxCell id="l613piqfv5i1cjY3Hqcz-48" value="f" style="text;html=1;align=center;verticalAlign=middle;whiteSpace=wrap;rounded=0;" vertex="1" parent="1">
          <mxGeometry x="320" y="250" width="50" height="30" as="geometry" />
        </mxCell>
        <mxCell id="l613piqfv5i1cjY3Hqcz-50" value="v" style="text;html=1;align=center;verticalAlign=middle;whiteSpace=wrap;rounded=0;" vertex="1" parent="1">
          <mxGeometry x="300" y="255" width="40" height="20" as="geometry" />
        </mxCell>
        <mxCell id="l613piqfv5i1cjY3Hqcz-52" value=". . ." style="text;html=1;align=center;verticalAlign=middle;whiteSpace=wrap;rounded=0;" vertex="1" parent="1">
          <mxGeometry x="390" y="270" width="60" height="20" as="geometry" />
        </mxCell>
        <mxCell id="l613piqfv5i1cjY3Hqcz-53" value=". . ." style="text;html=1;align=center;verticalAlign=middle;whiteSpace=wrap;rounded=0;" vertex="1" parent="1">
          <mxGeometry x="390" y="230" width="60" height="20" as="geometry" />
        </mxCell>
        <mxCell id="l613piqfv5i1cjY3Hqcz-54" value=". . ." style="text;html=1;align=center;verticalAlign=middle;whiteSpace=wrap;rounded=0;" vertex="1" parent="1">
          <mxGeometry x="390" y="190" width="60" height="20" as="geometry" />
        </mxCell>
        <mxCell id="l613piqfv5i1cjY3Hqcz-55" value=". . ." style="text;html=1;align=center;verticalAlign=middle;whiteSpace=wrap;rounded=0;" vertex="1" parent="1">
          <mxGeometry x="320" y="150" width="10" height="50" as="geometry" />
        </mxCell>
        <mxCell id="l613piqfv5i1cjY3Hqcz-56" value=". . ." style="text;html=1;align=center;verticalAlign=middle;whiteSpace=wrap;rounded=0;" vertex="1" parent="1">
          <mxGeometry x="360" y="150" width="10" height="50" as="geometry" />
        </mxCell>
        <mxCell id="l613piqfv5i1cjY3Hqcz-57" value=". . ." style="text;html=1;align=center;verticalAlign=middle;whiteSpace=wrap;rounded=0;" vertex="1" parent="1">
          <mxGeometry x="400" y="150" width="10" height="50" as="geometry" />
        </mxCell>
      </root>
    </mxGraphModel>
  </diagram>
</mxfile>
